<?xml version="1.0" standalone="no"?>
<!DOCTYPE svg PUBLIC "-//W3C//DTD SVG 20010904//EN"
 "http://www.w3.org/TR/2001/REC-SVG-20010904/DTD/svg10.dtd">
<svg version="1.0" xmlns="http://www.w3.org/2000/svg"
 width="603.000000pt" height="603.000000pt" viewBox="0 0 603.000000 603.000000"
 preserveAspectRatio="xMidYMid meet">
<metadata>
Created by potrace 1.14, written by Peter Selinger 2001-2017
</metadata>
<g transform="translate(0.000000,603.000000) scale(0.100000,-0.100000)"
fill="#000000" stroke="none">
<path d="M2795 5762 c-1 -2 -31 -4 -66 -6 -35 -1 -74 -7 -85 -14 -12 -6 -24
-9 -27 -5 -4 3 -13 1 -20 -5 -8 -7 -16 -9 -20 -6 -3 3 -23 0 -44 -7 -21 -7
-41 -14 -45 -15 -5 -1 -11 -3 -15 -4 -5 -2 -12 -4 -18 -5 -5 -1 -54 -23 -108
-49 -53 -26 -102 -44 -107 -41 -6 4 -9 2 -8 -3 2 -6 -19 -26 -47 -46 -36 -26
-51 -32 -58 -23 -6 8 -7 7 -3 -5 6 -20 -21 -51 -36 -42 -7 4 -8 2 -4 -5 4 -6
-4 -25 -18 -42 -17 -20 -26 -25 -26 -15 0 31 -25 17 -60 -34 -13 -19 -30 -41
-37 -48 -7 -8 -18 -22 -24 -33 -5 -11 -14 -17 -20 -14 -5 4 -9 -5 -9 -18 0
-14 -7 -30 -15 -37 -13 -11 -15 -8 -15 13 0 37 -20 44 -41 16 -23 -29 -24 -43
-3 -35 9 3 12 2 9 -5 -4 -6 -13 -8 -20 -5 -11 4 -34 -39 -40 -74 -5 -32 -18
-60 -27 -60 -6 0 -26 -11 -43 -25 -18 -13 -36 -21 -40 -17 -5 4 -5 2 -2 -4 3
-6 -11 -28 -32 -48 -21 -21 -41 -34 -43 -29 -3 4 -3 2 -1 -6 2 -7 -8 -34 -21
-60 -29 -58 -48 -134 -35 -142 11 -6 2 -39 -11 -39 -4 0 -13 -21 -20 -47 -6
-27 -16 -59 -21 -72 -21 -51 -39 -181 -39 -276 0 -107 4 -120 35 -128 19 -5
19 -5 -2 -12 -13 -4 -20 -11 -17 -16 3 -5 10 -7 15 -4 5 4 9 -27 10 -72 2
-103 1 -119 -1 -178 -2 -51 0 -72 26 -233 8 -51 12 -102 8 -114 -4 -13 -2 -18
4 -14 6 4 15 -16 22 -51 7 -32 15 -64 18 -72 4 -10 1 -12 -8 -6 -9 5 -11 4 -6
-4 4 -6 12 -9 17 -6 5 4 9 3 10 -2 0 -4 2 -17 4 -27 4 -22 -28 -69 -40 -58 -5
4 -6 0 -3 -9 4 -9 0 -44 -7 -77 -9 -47 -10 -83 -2 -149 5 -49 10 -105 9 -126
-1 -25 3 -40 13 -43 8 -4 15 -15 15 -25 0 -10 4 -19 8 -19 10 0 46 -79 43 -93
-1 -5 3 -6 8 -3 12 8 42 -34 34 -47 -3 -6 -1 -7 5 -3 7 4 12 1 12 -8 0 -9 -5
-16 -12 -16 -6 0 -9 -3 -6 -6 3 -3 16 1 28 8 18 11 23 10 36 -7 8 -11 22 -19
31 -17 10 2 12 -1 7 -9 -4 -8 -3 -10 5 -5 7 5 26 2 42 -4 16 -7 39 -13 51 -14
14 -1 29 -17 49 -54 16 -30 49 -82 73 -117 25 -34 42 -66 38 -70 -4 -3 0 -5 8
-3 8 2 14 -3 13 -9 -2 -7 4 -13 13 -13 10 0 14 -6 10 -15 -3 -9 0 -15 9 -15 7
0 33 -18 57 -40 56 -51 165 -130 179 -130 8 0 8 -4 0 -14 -9 -11 -6 -13 19
-10 18 2 30 -1 30 -8 0 -6 3 -9 6 -5 3 3 27 -8 52 -24 25 -16 52 -29 60 -29 9
0 12 -6 7 -18 -5 -14 -4 -15 6 -4 17 16 34 16 20 -1 -15 -19 -3 -28 23 -16 15
7 32 6 59 -6 39 -16 42 -23 37 -105 -3 -50 -2 -50 -32 -83 -20 -22 -37 -31
-70 -34 -24 -2 -52 -8 -63 -12 -54 -24 -187 -61 -197 -55 -7 4 -8 3 -4 -4 4
-7 1 -12 -7 -12 -8 0 -28 -7 -43 -15 -16 -8 -37 -15 -46 -15 -9 0 -20 -4 -23
-10 -3 -5 -21 -16 -40 -25 -19 -8 -51 -22 -70 -30 -19 -9 -37 -20 -40 -25 -3
-6 -13 -10 -21 -10 -8 0 -28 -12 -45 -27 -17 -16 -34 -29 -37 -29 -31 -7 -52
-18 -49 -27 2 -6 -2 -18 -9 -27 -65 -80 -66 -81 -82 -68 -13 11 -14 10 -4 -8
9 -17 9 -24 -3 -34 -27 -22 -165 -281 -165 -309 0 -7 -4 -10 -9 -7 -5 3 -11
-1 -15 -9 -3 -8 0 -15 6 -15 7 0 7 -4 1 -13 -16 -20 -50 -170 -59 -261 -3 -27
-8 -54 -12 -60 -4 -6 -7 -24 -8 -41 0 -16 -4 -50 -8 -75 -24 -145 -37 -266
-29 -285 5 -14 3 -16 -7 -10 -8 5 -11 4 -7 -2 4 -6 18 -8 31 -6 28 6 27 16 7
-120 -12 -84 -8 -101 22 -84 12 7 25 17 29 22 5 6 8 6 8 -2 0 -13 167 -16 770
-13 529 3 620 5 620 11 0 3 43 5 95 3 53 -1 97 1 99 5 3 4 37 4 78 1 40 -3
105 -4 143 -3 39 2 266 5 505 7 239 3 451 8 470 12 63 13 213 11 238 -3 13 -8
22 -9 22 -3 0 5 5 10 11 10 5 0 7 -4 4 -10 -3 -5 -2 -10 3 -10 17 0 21 43 11
105 -14 85 -16 119 -8 125 4 3 -2 37 -12 75 -10 39 -17 76 -14 83 2 6 0 12 -5
12 -4 0 -11 12 -14 28 -14 62 -19 88 -20 105 0 9 -3 17 -6 17 -4 0 -12 24 -19
53 -7 28 -16 61 -21 72 -16 36 -29 98 -23 108 3 5 0 12 -6 16 -9 6 -9 15 -1
35 6 17 6 25 0 21 -6 -3 -10 3 -10 15 0 12 -4 19 -10 15 -5 -3 -14 14 -21 37
-7 24 -23 66 -36 94 -14 29 -21 59 -17 70 4 13 3 15 -4 6 -7 -10 -12 -5 -22
20 -14 34 -116 188 -133 199 -5 4 -6 12 -2 19 5 8 4 11 -2 7 -12 -8 -115 82
-108 93 3 4 -3 7 -13 6 -9 0 -16 5 -15 11 2 7 -3 12 -10 10 -6 -1 -11 3 -10 9
1 6 -8 10 -20 10 -11 -1 -26 8 -31 19 -8 14 -23 21 -50 22 -22 1 -43 7 -46 14
-4 6 -9 10 -11 9 -2 -1 -17 3 -32 9 -15 6 -39 14 -52 17 -13 3 -29 12 -36 20
-6 8 -23 14 -38 14 -15 0 -32 5 -37 10 -6 6 -20 12 -33 15 -42 8 -146 48 -153
58 -4 6 -4 15 -1 20 4 6 -4 7 -19 4 -29 -8 -103 15 -103 31 0 6 -3 14 -7 18
-5 4 -8 2 -8 -4 0 -7 -4 -12 -10 -12 -14 0 -31 72 -20 85 10 12 8 54 -4 74
-10 15 -10 15 35 34 21 8 41 11 46 6 4 -4 15 -4 23 1 13 9 13 10 0 10 -8 0 30
24 85 53 123 65 175 98 222 142 21 19 44 34 53 32 8 -1 14 4 12 11 -3 14 47
59 60 55 5 -2 7 3 5 10 -1 6 3 11 10 10 7 -2 10 4 6 13 -4 10 1 17 15 21 11 2
23 16 27 30 5 22 8 23 22 11 14 -11 16 -10 11 9 -6 23 18 67 32 58 4 -3 7 3 6
13 0 9 4 16 10 15 7 -1 11 3 11 10 -3 27 37 86 61 92 14 3 32 14 40 23 7 9 11
11 7 5 -3 -7 -1 -13 4 -13 6 0 11 5 11 11 0 5 4 7 10 4 5 -3 30 6 55 20 24 15
49 24 55 20 5 -3 10 -1 10 4 0 6 7 11 16 11 11 0 14 6 9 20 -11 34 7 45 21 14
9 -19 12 -21 8 -6 -3 12 -1 22 5 22 5 0 8 10 6 22 -3 12 3 36 13 52 10 17 26
57 37 88 10 31 22 55 25 53 4 -3 5 7 2 20 -2 14 -1 33 3 42 15 33 16 74 5 89
-7 8 -9 25 -6 40 6 21 0 35 -24 66 -18 22 -30 47 -28 56 3 10 -1 23 -9 30 -7
8 -13 8 -13 2 0 -5 -5 -10 -10 -10 -6 0 -4 13 5 30 10 19 13 40 9 53 -3 12 -3
19 1 15 5 -4 14 -3 22 3 16 14 18 33 1 23 -8 -5 -9 -2 -4 12 4 10 9 28 10 39
2 11 6 29 9 40 7 24 17 71 21 105 15 118 18 130 34 118 13 -11 14 -10 4 8 -8
15 -9 43 -3 90 13 103 12 530 -1 679 -6 72 -12 146 -12 167 -1 20 -5 34 -10
31 -4 -3 -5 10 -1 28 4 25 3 30 -4 19 -9 -13 -11 -12 -12 5 -1 30 -5 42 -44
145 -20 52 -45 109 -56 126 -11 18 -16 39 -13 48 4 10 1 16 -8 16 -17 0 -51
54 -40 64 4 4 0 6 -8 4 -9 -2 -14 4 -14 14 1 10 -2 16 -6 13 -11 -7 -41 30
-33 40 5 4 3 5 -4 2 -13 -8 -56 41 -47 54 3 5 0 8 -8 7 -7 -2 -12 3 -10 11 2
9 -3 11 -14 7 -12 -5 -15 -2 -10 9 3 9 2 13 -4 10 -5 -3 -21 5 -35 19 -14 15
-28 26 -31 26 -10 0 -99 64 -107 77 -4 7 -14 13 -22 13 -7 0 -15 4 -17 10 -1
5 -12 11 -23 13 -11 2 -39 13 -62 25 -24 12 -43 20 -43 17 0 -3 -10 1 -23 10
-13 8 -27 12 -30 8 -4 -3 -7 -1 -7 5 0 5 -30 20 -66 32 -37 13 -74 30 -83 39
-10 10 -23 15 -29 13 -11 -3 -133 33 -156 46 -6 3 -19 7 -30 8 -12 1 -57 7
-101 13 -69 9 -391 12 -400 3z"/>
<path d="M3278 5763 c7 -3 16 -2 19 1 4 3 -2 6 -13 5 -11 0 -14 -3 -6 -6z"/>
<path d="M1515 4909 c-4 -6 -5 -12 -2 -15 2 -3 7 2 10 11 7 17 1 20 -8 4z"/>
<path d="M4400 3725 c0 -8 2 -15 4 -15 2 0 6 7 10 15 3 8 1 15 -4 15 -6 0 -10
-7 -10 -15z"/>
<path d="M4065 2650 c-3 -6 1 -7 9 -4 18 7 21 14 7 14 -6 0 -13 -4 -16 -10z"/>
<path d="M1850 2636 c0 -8 4 -17 9 -20 5 -4 7 3 4 14 -6 23 -13 26 -13 6z"/>
<path d="M3430 2075 c0 -8 4 -15 10 -15 5 0 7 7 4 15 -4 8 -8 15 -10 15 -2 0
-4 -7 -4 -15z"/>
<path d="M2447 2059 c7 -7 15 -10 18 -7 3 3 -2 9 -12 12 -14 6 -15 5 -6 -5z"/>
<path d="M4090 1546 c0 -2 7 -7 16 -10 8 -3 12 -2 9 4 -6 10 -25 14 -25 6z"/>
<path d="M4254 1385 c3 -23 12 -26 13 -5 1 11 -2 20 -7 20 -4 0 -7 -7 -6 -15z"/>
<path d="M4581 414 c0 -11 3 -14 6 -6 3 7 2 16 -1 19 -3 4 -6 -2 -5 -13z"/>
</g>
</svg>
